<svg width="89" height="29" viewBox="0 0 89 29" fill="none" xmlns="http://www.w3.org/2000/svg">
<g opacity="0.3">
<path d="M25.1701 6.3115C24.7085 6.3115 24.3138 6.23302 23.986 6.07606C23.6629 5.91449 23.3997 5.70444 23.1966 5.44592C22.9981 5.18278 22.8504 4.90118 22.7534 4.60111C22.6611 4.29643 22.6149 4.00329 22.6149 3.72168V3.56934C22.6149 3.26004 22.6634 2.95305 22.7604 2.64836C22.8573 2.34368 23.005 2.06669 23.2035 1.81741C23.4067 1.56812 23.6675 1.36731 23.986 1.21496C24.3092 1.06262 24.69 0.98645 25.1286 0.98645C25.5856 0.98645 25.9803 1.06724 26.3127 1.22881C26.6451 1.39039 26.9082 1.61659 27.1021 1.90743C27.3006 2.19365 27.4183 2.53295 27.4553 2.92535H26.6174C26.5805 2.66683 26.4927 2.45217 26.3542 2.28136C26.2204 2.10593 26.0473 1.97437 25.8349 1.88665C25.6272 1.79894 25.3917 1.75509 25.1286 1.75509C24.8562 1.75509 24.6139 1.80356 24.4015 1.9005C24.1938 1.99745 24.0206 2.13132 23.8821 2.30213C23.7437 2.47294 23.6375 2.67375 23.5636 2.90458C23.4944 3.13078 23.4597 3.38007 23.4597 3.65244C23.4597 3.91096 23.4944 4.15563 23.5636 4.38645C23.6375 4.61266 23.746 4.81347 23.8891 4.98889C24.0322 5.16432 24.2099 5.3005 24.4223 5.39745C24.6392 5.49439 24.8885 5.54287 25.1701 5.54287C25.5764 5.54287 25.918 5.44361 26.195 5.24511C26.472 5.04198 26.6405 4.75346 26.7005 4.37953H27.5453C27.4991 4.73499 27.3791 5.06045 27.1852 5.3559C26.9913 5.64674 26.7259 5.87987 26.3889 6.05529C26.0519 6.2261 25.6456 6.3115 25.1701 6.3115Z" fill="white"/>
<path d="M28.4515 6.18686V1.13187H29.2825V6.18686H28.4515ZM29.144 6.18686V5.44592H31.3945V6.18686H29.144Z" fill="white"/>
<path d="M31.8003 6.18686L33.573 1.13187H34.951L36.7791 6.18686H35.9204L34.3208 1.68584L34.6601 1.84511H33.8223L34.1823 1.68584L32.6312 6.18686H31.8003ZM32.9498 4.76038L33.2129 4.04022H35.3318L35.6019 4.76038H32.9498Z" fill="white"/>
<path d="M39.2634 6.3115C38.8295 6.3115 38.4601 6.24225 38.1555 6.10376C37.8554 5.96065 37.6269 5.76676 37.4699 5.52209C37.313 5.2728 37.2345 4.9912 37.2345 4.67729H38.0516C38.0516 4.82039 38.0908 4.9612 38.1693 5.09969C38.2478 5.23818 38.3747 5.35359 38.5502 5.44592C38.7256 5.53363 38.9633 5.57749 39.2634 5.57749C39.5358 5.57749 39.7597 5.53825 39.9351 5.45977C40.1151 5.38129 40.2467 5.27742 40.3298 5.14816C40.4175 5.0189 40.4614 4.87579 40.4614 4.71883C40.4614 4.52494 40.3783 4.36798 40.2121 4.24796C40.0459 4.12331 39.7966 4.04714 39.4642 4.01944L38.9587 3.97097C38.4925 3.93404 38.1208 3.79093 37.8439 3.54164C37.5669 3.28774 37.4284 2.95536 37.4284 2.5445C37.4284 2.23058 37.5022 1.95821 37.65 1.72739C37.8023 1.49657 38.0147 1.31653 38.287 1.18726C38.5594 1.05339 38.8756 0.98645 39.2357 0.98645C39.605 0.98645 39.9259 1.05339 40.1982 1.18726C40.4706 1.31653 40.6806 1.50118 40.8284 1.74124C40.9807 1.97667 41.0569 2.25828 41.0569 2.58604H40.2398C40.2398 2.43832 40.2029 2.29982 40.129 2.17056C40.0597 2.03669 39.9513 1.9282 39.8035 1.84511C39.6558 1.76201 39.4665 1.72046 39.2357 1.72046C39.0141 1.72046 38.8295 1.7597 38.6817 1.83818C38.5386 1.91666 38.4301 2.01822 38.3563 2.14287C38.2824 2.26751 38.2455 2.40139 38.2455 2.5445C38.2455 2.7153 38.3101 2.86765 38.4394 3.00152C38.5686 3.13078 38.7671 3.20695 39.0349 3.23003L39.5335 3.27158C39.8889 3.29928 40.1959 3.37545 40.4544 3.5001C40.7176 3.62012 40.9207 3.7817 41.0638 3.98482C41.2115 4.18794 41.2854 4.43261 41.2854 4.71883C41.2854 5.03275 41.2 5.30974 41.0292 5.54979C40.863 5.78984 40.6276 5.97681 40.3229 6.11069C40.0228 6.24456 39.6697 6.3115 39.2634 6.3115Z" fill="white"/>
<path d="M43.9835 6.3115C43.5496 6.3115 43.1803 6.24225 42.8756 6.10376C42.5755 5.96065 42.347 5.76676 42.19 5.52209C42.0331 5.2728 41.9546 4.9912 41.9546 4.67729H42.7717C42.7717 4.82039 42.811 4.9612 42.8894 5.09969C42.9679 5.23818 43.0949 5.35359 43.2703 5.44592C43.4457 5.53363 43.6835 5.57749 43.9835 5.57749C44.2559 5.57749 44.4798 5.53825 44.6552 5.45977C44.8353 5.38129 44.9668 5.27742 45.0499 5.14816C45.1376 5.0189 45.1815 4.87579 45.1815 4.71883C45.1815 4.52494 45.0984 4.36798 44.9322 4.24796C44.766 4.12331 44.5167 4.04714 44.1843 4.01944L43.6788 3.97097C43.2126 3.93404 42.841 3.79093 42.564 3.54164C42.287 3.28774 42.1485 2.95536 42.1485 2.5445C42.1485 2.23058 42.2224 1.95821 42.3701 1.72739C42.5224 1.49657 42.7348 1.31653 43.0071 1.18726C43.2795 1.05339 43.5957 0.98645 43.9558 0.98645C44.3251 0.98645 44.646 1.05339 44.9184 1.18726C45.1907 1.31653 45.4008 1.50118 45.5485 1.74124C45.7008 1.97667 45.777 2.25828 45.777 2.58604H44.9599C44.9599 2.43832 44.923 2.29982 44.8491 2.17056C44.7799 2.03669 44.6714 1.9282 44.5236 1.84511C44.3759 1.76201 44.1866 1.72046 43.9558 1.72046C43.7342 1.72046 43.5496 1.7597 43.4019 1.83818C43.2587 1.91666 43.1503 2.01822 43.0764 2.14287C43.0025 2.26751 42.9656 2.40139 42.9656 2.5445C42.9656 2.7153 43.0302 2.86765 43.1595 3.00152C43.2888 3.13078 43.4873 3.20695 43.755 3.23003L44.2536 3.27158C44.6091 3.29928 44.916 3.37545 45.1746 3.5001C45.4377 3.62012 45.6408 3.7817 45.7839 3.98482C45.9317 4.18794 46.0055 4.43261 46.0055 4.71883C46.0055 5.03275 45.9201 5.30974 45.7493 5.54979C45.5831 5.78984 45.3477 5.97681 45.043 6.11069C44.7429 6.24456 44.3898 6.3115 43.9835 6.3115Z" fill="white"/>
<path d="M51.8244 7.66181C51.5567 7.66181 51.3212 7.62488 51.1181 7.55101C50.9196 7.48177 50.765 7.35481 50.6542 7.17016C50.548 6.99012 50.4949 6.73852 50.4949 6.41537V5.75061H51.2635V6.50539C51.2635 6.6485 51.3051 6.7616 51.3882 6.8447C51.4759 6.92779 51.5913 6.96934 51.7344 6.96934H52.5585V7.66181H51.8244ZM50.8758 6.3115C50.4187 6.3115 50.024 6.23302 49.6917 6.07606C49.3639 5.91449 49.0915 5.70213 48.8745 5.439C48.6576 5.17586 48.496 4.89426 48.3898 4.59419C48.2883 4.28951 48.2375 3.99867 48.2375 3.72168V3.56934C48.2375 3.26466 48.2906 2.95997 48.3967 2.65529C48.5075 2.3506 48.6714 2.07362 48.8884 1.82433C49.11 1.57043 49.3847 1.36731 49.7124 1.21496C50.0448 1.06262 50.4326 0.98645 50.8758 0.98645C51.3189 0.98645 51.7044 1.06262 52.0322 1.21496C52.3599 1.36731 52.6346 1.57043 52.8562 1.82433C53.0778 2.07362 53.2417 2.3506 53.3479 2.65529C53.4587 2.95997 53.5141 3.26466 53.5141 3.56934V3.72168C53.5141 3.99867 53.461 4.28951 53.3548 4.59419C53.2486 4.89426 53.087 5.17586 52.8701 5.439C52.6577 5.70213 52.3853 5.91449 52.053 6.07606C51.7206 6.23302 51.3282 6.3115 50.8758 6.3115ZM50.8758 5.54287C51.1527 5.54287 51.402 5.49209 51.6236 5.39052C51.8452 5.28896 52.0345 5.15047 52.1914 4.97504C52.3484 4.79962 52.4661 4.59881 52.5446 4.3726C52.6277 4.1464 52.6692 3.90634 52.6692 3.65244C52.6692 3.38469 52.6277 3.13771 52.5446 2.9115C52.4615 2.68068 52.3415 2.47987 52.1845 2.30906C52.0322 2.13363 51.8452 1.99745 51.6236 1.9005C51.402 1.80356 51.1527 1.75509 50.8758 1.75509C50.5988 1.75509 50.3495 1.80356 50.1279 1.9005C49.9063 1.99745 49.717 2.13363 49.5601 2.30906C49.4031 2.47987 49.2831 2.68068 49.2 2.9115C49.1215 3.13771 49.0823 3.38469 49.0823 3.65244C49.0823 3.90634 49.1215 4.1464 49.2 4.3726C49.2831 4.59881 49.4031 4.79962 49.5601 4.97504C49.717 5.15047 49.9063 5.28896 50.1279 5.39052C50.3495 5.49209 50.5988 5.54287 50.8758 5.54287Z" fill="white"/>
<path d="M54.5613 6.18686V1.13187H55.3923V6.18686H54.5613Z" fill="white"/>
<path d="M56.2461 6.18686L58.0189 1.13187H59.3969L61.225 6.18686H60.3663L58.7667 1.68584L59.106 1.84511H58.2681L58.6282 1.68584L57.0771 6.18686H56.2461ZM57.3956 4.76038L57.6588 4.04022H59.7777L60.0478 4.76038H57.3956Z" fill="white"/>
<path d="M61.6155 6.18686L63.3882 1.13187H64.7662L66.5943 6.18686H65.7356L64.136 1.68584L64.4753 1.84511H63.6374L63.9975 1.68584L62.4464 6.18686H61.6155ZM62.7649 4.76038L63.0281 4.04022H65.147L65.4171 4.76038H62.7649Z" fill="white"/>
<path d="M68.1222 6.21456V5.44592H69.2786C69.5602 5.44592 69.8118 5.40206 70.0334 5.31435C70.255 5.22202 70.4442 5.09507 70.6012 4.9335C70.7582 4.77192 70.8759 4.58265 70.9544 4.36568C71.0375 4.14409 71.079 3.90634 71.079 3.65244C71.079 3.38007 71.0375 3.1354 70.9544 2.91843C70.8759 2.70145 70.7582 2.51449 70.6012 2.35753C70.4442 2.20057 70.255 2.08054 70.0334 1.99745C69.8118 1.90974 69.5602 1.86588 69.2786 1.86588H68.1222V1.09724H69.2094C69.6664 1.09724 70.0634 1.16649 70.4004 1.30498C70.742 1.44348 71.0259 1.63044 71.2521 1.86588C71.4783 2.10132 71.6468 2.36676 71.7576 2.66221C71.8684 2.95767 71.9238 3.26235 71.9238 3.57627V3.72861C71.9238 4.02406 71.8684 4.32182 71.7576 4.62189C71.6468 4.91734 71.4783 5.18509 71.2521 5.42515C71.0259 5.66058 70.742 5.85217 70.4004 5.99989C70.0634 6.143 69.6664 6.21456 69.2094 6.21456H68.1222ZM67.4297 6.21456V1.09724H68.2607V6.21456H67.4297Z" fill="white"/>
<path d="M72.8869 6.18686V1.13187H74.0087L75.3937 4.32413H75.5114L76.8824 1.13187H78.0181V6.18686H77.1941V1.8728L77.2772 1.88665L75.8784 5.14816H74.9643L73.5517 1.88665L73.6486 1.8728V6.18686H72.8869Z" fill="white"/>
<path d="M79.3859 6.18686V1.13187H80.2168V6.18686H79.3859Z" fill="white"/>
<path d="M81.5901 6.18686V1.13187H82.9473L85.2948 5.47362H85.5233L85.3848 5.59826V1.13187H86.1742V6.18686H84.8031L82.4557 1.84511H82.2271L82.3656 1.72046V6.18686H81.5901Z" fill="white"/>
<path d="M3.59105 16.5738V11.5188H4.42201V16.5738H3.59105ZM0.21875 16.5738V11.5188H1.04971V16.5738H0.21875ZM0.89044 14.4203V13.6793H3.75032V14.4203H0.89044Z" fill="white"/>
<path d="M5.7774 16.5738V11.5188H6.60836V16.5738H5.7774ZM6.46986 16.5738V15.8329H8.72037V16.5738H6.46986Z" fill="white"/>
<path d="M11.8097 16.6985C11.3527 16.6985 10.958 16.62 10.6256 16.463C10.2978 16.3015 10.0254 16.0891 9.80846 15.826C9.59149 15.5628 9.42991 15.2812 9.32374 14.9812C9.22218 14.6765 9.17139 14.3856 9.17139 14.1087V13.9563C9.17139 13.6516 9.22448 13.3469 9.33066 13.0423C9.44146 12.7376 9.60534 12.4606 9.82231 12.2113C10.0439 11.9574 10.3186 11.7543 10.6463 11.6019C10.9787 11.4496 11.3665 11.3734 11.8097 11.3734C12.2529 11.3734 12.6383 11.4496 12.9661 11.6019C13.2939 11.7543 13.5685 11.9574 13.7901 12.2113C14.0117 12.4606 14.1756 12.7376 14.2818 13.0423C14.3926 13.3469 14.448 13.6516 14.448 13.9563V14.1087C14.448 14.3856 14.3949 14.6765 14.2887 14.9812C14.1825 15.2812 14.021 15.5628 13.804 15.826C13.5916 16.0891 13.3193 16.3015 12.9869 16.463C12.6545 16.62 12.2621 16.6985 11.8097 16.6985ZM11.8097 15.9298C12.0867 15.9298 12.336 15.8791 12.5575 15.7775C12.7791 15.6759 12.9684 15.5374 13.1254 15.362C13.2823 15.1866 13.4 14.9858 13.4785 14.7596C13.5616 14.5334 13.6032 14.2933 13.6032 14.0394C13.6032 13.7717 13.5616 13.5247 13.4785 13.2985C13.3954 13.0676 13.2754 12.8668 13.1184 12.696C12.9661 12.5206 12.7791 12.3844 12.5575 12.2875C12.336 12.1905 12.0867 12.1421 11.8097 12.1421C11.5327 12.1421 11.2834 12.1905 11.0618 12.2875C10.8402 12.3844 10.651 12.5206 10.494 12.696C10.337 12.8668 10.217 13.0676 10.1339 13.2985C10.0554 13.5247 10.0162 13.7717 10.0162 14.0394C10.0162 14.2933 10.0554 14.5334 10.1339 14.7596C10.217 14.9858 10.337 15.1866 10.494 15.362C10.651 15.5374 10.8402 15.6759 11.0618 15.7775C11.2834 15.8791 11.5327 15.9298 11.8097 15.9298Z" fill="white"/>
<path d="M17.7873 16.6985C17.3718 16.6985 17.0025 16.6315 16.6793 16.4977C16.3562 16.3592 16.0815 16.1699 15.8553 15.9298C15.6291 15.6898 15.456 15.4105 15.336 15.0919C15.2205 14.7734 15.1628 14.4364 15.1628 14.081V13.9286C15.1628 13.6101 15.2182 13.2985 15.329 12.9938C15.4398 12.6891 15.6014 12.4144 15.8138 12.1697C16.0307 11.9251 16.2939 11.7312 16.6032 11.5881C16.9171 11.445 17.2749 11.3734 17.6765 11.3734C18.1058 11.3734 18.489 11.4565 18.826 11.6227C19.163 11.7843 19.433 12.0105 19.6362 12.3013C19.8393 12.5875 19.957 12.9199 19.9893 13.2985H19.1445C19.1168 13.0492 19.0314 12.8391 18.8883 12.6683C18.7498 12.4975 18.5744 12.3683 18.362 12.2805C18.1543 12.1882 17.9258 12.1421 17.6765 12.1421C17.4272 12.1421 17.1987 12.1882 16.9909 12.2805C16.7878 12.3683 16.6124 12.4952 16.4647 12.6614C16.3169 12.823 16.2038 13.0192 16.1254 13.25C16.0469 13.4762 16.0076 13.7301 16.0076 14.0117C16.0076 14.3256 16.0492 14.6026 16.1323 14.8427C16.22 15.0827 16.3423 15.2858 16.4993 15.452C16.6562 15.6136 16.8432 15.7382 17.0602 15.826C17.2818 15.9091 17.5241 15.9506 17.7873 15.9506C18.152 15.9506 18.4705 15.8767 18.7429 15.729C19.0199 15.5767 19.2276 15.3805 19.3661 15.1404L19.1514 15.9506V14.5449H19.927V15.7082C19.7008 16.0222 19.4053 16.2668 19.0406 16.4423C18.6806 16.6131 18.2628 16.6985 17.7873 16.6985ZM17.6142 14.7111V14.0602H20.3494V14.7111H17.6142Z" fill="white"/>
<path d="M23.5285 16.6985C23.113 16.6985 22.7437 16.6315 22.4206 16.4977C22.0974 16.3592 21.8227 16.1699 21.5965 15.9298C21.3703 15.6898 21.1972 15.4105 21.0772 15.0919C20.9618 14.7734 20.9041 14.4364 20.9041 14.081V13.9286C20.9041 13.6101 20.9595 13.2985 21.0703 12.9938C21.1811 12.6891 21.3426 12.4144 21.555 12.1697C21.772 11.9251 22.0351 11.7312 22.3444 11.5881C22.6583 11.445 23.0161 11.3734 23.4177 11.3734C23.847 11.3734 24.2302 11.4565 24.5672 11.6227C24.9042 11.7843 25.1743 12.0105 25.3774 12.3013C25.5805 12.5875 25.6982 12.9199 25.7305 13.2985H24.8857C24.858 13.0492 24.7726 12.8391 24.6295 12.6683C24.491 12.4975 24.3156 12.3683 24.1033 12.2805C23.8955 12.1882 23.667 12.1421 23.4177 12.1421C23.1684 12.1421 22.9399 12.1882 22.7322 12.2805C22.5291 12.3683 22.3536 12.4952 22.2059 12.6614C22.0582 12.823 21.9451 13.0192 21.8666 13.25C21.7881 13.4762 21.7489 13.7301 21.7489 14.0117C21.7489 14.3256 21.7904 14.6026 21.8735 14.8427C21.9612 15.0827 22.0836 15.2858 22.2405 15.452C22.3975 15.6136 22.5844 15.7382 22.8014 15.826C23.023 15.9091 23.2654 15.9506 23.5285 15.9506C23.8932 15.9506 24.2117 15.8767 24.4841 15.729C24.7611 15.5767 24.9688 15.3805 25.1073 15.1404L24.8927 15.9506V14.5449H25.6682V15.7082C25.442 16.0222 25.1466 16.2668 24.7819 16.4423C24.4218 16.6131 24.004 16.6985 23.5285 16.6985ZM23.3554 14.7111V14.0602H26.0906V14.7111H23.3554Z" fill="white"/>
<path d="M26.9841 16.5738V11.5188H27.8082V16.5738H26.9841ZM27.6697 16.5738V15.8537H30.0379V16.5738H27.6697ZM27.6697 14.3649V13.6447H29.844V14.3649H27.6697ZM27.6697 12.239V11.5188H29.9756V12.239H27.6697Z" fill="white"/>
<path d="M31.1227 16.5738V11.4842H31.9536V16.5738H31.1227ZM34.2249 16.5738L32.6184 14.351H33.5602L35.2151 16.5738H34.2249ZM31.6836 14.815V14.1156H32.9993C33.1978 14.1156 33.3686 14.0763 33.5117 13.9979C33.6548 13.9148 33.7633 13.8017 33.8371 13.6585C33.9156 13.5154 33.9549 13.3492 33.9549 13.16C33.9549 12.9753 33.9156 12.8114 33.8371 12.6683C33.7633 12.5252 33.6548 12.4121 33.5117 12.329C33.3686 12.2459 33.1978 12.2044 32.9993 12.2044H31.6836V11.4842H32.8885C33.2762 11.4842 33.6132 11.5442 33.8995 11.6643C34.1857 11.7797 34.4073 11.9551 34.5642 12.1905C34.7212 12.426 34.7997 12.7283 34.7997 13.0977V13.2084C34.7997 13.5778 34.7189 13.8801 34.5573 14.1156C34.4003 14.351 34.1788 14.5264 33.8925 14.6418C33.6109 14.7573 33.2762 14.815 32.8885 14.815H31.6836Z" fill="white"/>
<path d="M35.8104 16.5738V15.5974H36.7521V16.5738H35.8104Z" fill="white"/>
<path d="M37.1996 17.5779V16.9685H41.2229V17.5779H37.1996Z" fill="white"/>
<path d="M41.2229 17.5779V16.9685H45.2465V17.5779H41.2229Z" fill="white"/>
<path d="M45.9393 16.5738V11.5188H46.7703V16.5738H45.9393Z" fill="white"/>
<path d="M48.1435 16.5738V11.5188H49.5007L51.8482 15.8606H52.0767L51.9382 15.9852V11.5188H52.7276V16.5738H51.3565L49.0091 12.2321H48.7806L48.9191 12.1074V16.5738H48.1435Z" fill="white"/>
<path d="M54.1015 16.5738V11.5188H54.9324V16.5738H54.1015Z" fill="white"/>
<path d="M57.2959 16.5738V12.1144H58.1268V16.5738H57.2959ZM55.8002 12.2528V11.5188H59.6295V12.2528H55.8002Z" fill="white"/>
<path d="M59.326 17.5779V16.9685H63.3493V17.5779H59.326Z" fill="white"/>
<path d="M63.3493 17.5779V16.9685H67.3729V17.5779H63.3493Z" fill="white"/>
<path d="M69.0005 17.8341C68.7651 17.5525 68.5574 17.2478 68.3773 16.9201C68.1973 16.5923 68.0588 16.2276 67.9618 15.826C67.8649 15.4243 67.8164 14.9765 67.8164 14.4826C67.8164 13.9886 67.8672 13.5454 67.9688 13.153C68.0703 12.756 68.2111 12.3983 68.3912 12.0797C68.5712 11.7566 68.7766 11.4634 69.0075 11.2003H69.9284C69.6561 11.505 69.4206 11.8258 69.2221 12.1628C69.0282 12.4952 68.8782 12.853 68.772 13.2361C68.6705 13.6147 68.6197 14.0302 68.6197 14.4826C68.6197 14.9396 68.6658 15.362 68.7582 15.7498C68.8551 16.133 69.0005 16.4953 69.1944 16.837C69.3929 17.1786 69.6376 17.511 69.9284 17.8341H69.0005Z" fill="white"/>
<path d="M72.3786 16.6985C71.9447 16.6985 71.5754 16.6292 71.2707 16.4907C70.9706 16.3476 70.7421 16.1537 70.5851 15.9091C70.4282 15.6598 70.3497 15.3782 70.3497 15.0642H71.1668C71.1668 15.2074 71.206 15.3482 71.2845 15.4867C71.363 15.6251 71.49 15.7406 71.6654 15.8329C71.8408 15.9206 72.0786 15.9645 72.3786 15.9645C72.651 15.9645 72.8749 15.9252 73.0503 15.8467C73.2304 15.7683 73.3619 15.6644 73.445 15.5351C73.5327 15.4059 73.5766 15.2628 73.5766 15.1058C73.5766 14.9119 73.4935 14.755 73.3273 14.6349C73.1611 14.5103 72.9118 14.4341 72.5794 14.4064L72.0739 14.3579C71.6077 14.321 71.2361 14.1779 70.9591 13.9286C70.6821 13.6747 70.5436 13.3423 70.5436 12.9315C70.5436 12.6175 70.6175 12.3452 70.7652 12.1144C70.9175 11.8835 71.1299 11.7035 71.4022 11.5742C71.6746 11.4404 71.9908 11.3734 72.3509 11.3734C72.7202 11.3734 73.0411 11.4404 73.3134 11.5742C73.5858 11.7035 73.7959 11.8881 73.9436 12.1282C74.0959 12.3636 74.1721 12.6452 74.1721 12.973H73.355C73.355 12.8253 73.3181 12.6868 73.2442 12.5575C73.175 12.4237 73.0665 12.3152 72.9187 12.2321C72.771 12.149 72.5817 12.1074 72.3509 12.1074C72.1293 12.1074 71.9447 12.1467 71.797 12.2251C71.6538 12.3036 71.5454 12.4052 71.4715 12.5298C71.3976 12.6545 71.3607 12.7884 71.3607 12.9315C71.3607 13.1023 71.4253 13.2546 71.5546 13.3885C71.6838 13.5177 71.8824 13.5939 72.1501 13.617L72.6487 13.6585C73.0042 13.6862 73.3111 13.7624 73.5697 13.8871C73.8328 14.0071 74.0359 14.1687 74.179 14.3718C74.3268 14.5749 74.4006 14.8196 74.4006 15.1058C74.4006 15.4197 74.3152 15.6967 74.1444 15.9368C73.9782 16.1768 73.7428 16.3638 73.4381 16.4977C73.138 16.6315 72.7849 16.6985 72.3786 16.6985Z" fill="white"/>
<path d="M75.4161 16.5738V11.5188H76.2401V16.5738H75.4161ZM76.1016 16.5738V15.8537H78.4698V16.5738H76.1016ZM76.1016 14.3649V13.6447H78.2759V14.3649H76.1016ZM76.1016 12.239V11.5188H78.4075V12.239H76.1016Z" fill="white"/>
<path d="M79.5546 16.5738V11.5188H80.3856V16.5738H79.5546ZM80.2471 16.5738V15.8329H82.4976V16.5738H80.2471Z" fill="white"/>
<path d="M83.355 16.5738V11.5188H84.186V16.5738H83.355ZM84.0475 14.3926V13.6724H86.1457V14.3926H84.0475ZM84.0475 12.239V11.5188H86.2495V12.239H84.0475Z" fill="white"/>
<path d="M87.3268 17.6956L86.6898 17.4463L87.3614 15.549L88.0401 15.8052L87.3268 17.6956Z" fill="white"/>
<path d="M47.7895 27.9649V27.3555H51.8127V27.9649H47.7895Z" fill="white"/>
<path d="M51.8127 27.9649V27.3555H55.8363V27.9649H51.8127Z" fill="white"/>
<path d="M56.5153 26.9608V21.9058H57.8725L60.22 26.2475H60.4485L60.31 26.3722V21.9058H61.0994V26.9608H59.7283L57.3809 22.619H57.1524L57.2909 22.4944V26.9608H56.5153Z" fill="white"/>
<path d="M61.94 26.9608L63.7128 21.9058H65.0908L66.9189 26.9608H66.0602L64.4606 22.4598L64.7999 22.619H63.962L64.3221 22.4598L62.771 26.9608H61.94ZM63.0895 25.5343L63.3527 24.8141H65.4716L65.7417 25.5343H63.0895Z" fill="white"/>
<path d="M67.7543 26.9608V21.9058H68.8761L70.261 25.0981H70.3788L71.7498 21.9058H72.8855V26.9608H72.0614V22.6467L72.1445 22.6606L70.7458 25.9221H69.8317L68.4191 22.6606L68.516 22.6467V26.9608H67.7543Z" fill="white"/>
<path d="M74.2394 26.9608V21.9058H75.0634V26.9608H74.2394ZM74.9249 26.9608V26.2406H77.2932V26.9608H74.9249ZM74.9249 24.7518V24.0317H77.0993V24.7518H74.9249ZM74.9249 22.626V21.9058H77.2309V22.626H74.9249Z" fill="white"/>
<path d="M77.6993 27.9649V27.3555H81.7226V27.9649H77.6993Z" fill="white"/>
<path d="M81.7226 27.9649V27.3555H85.7462V27.9649H81.7226Z" fill="white"/>
<path d="M86.7645 28.2211C86.9999 27.9395 87.2076 27.6348 87.3877 27.307C87.5677 26.9793 87.7062 26.6146 87.8032 26.2129C87.9001 25.8113 87.9486 25.3635 87.9486 24.8695C87.9486 24.3756 87.8978 23.9324 87.7962 23.54C87.6947 23.143 87.5539 22.7852 87.3738 22.4667C87.1938 22.1435 86.9884 21.8504 86.7575 21.5873H85.8366C86.1089 21.8919 86.3421 22.2128 86.5359 22.5498C86.7345 22.8822 86.8845 23.2399 86.986 23.6231C87.0922 24.0017 87.1453 24.4171 87.1453 24.8695C87.1453 25.3266 87.0968 25.749 86.9999 26.1368C86.9076 26.5199 86.7621 26.8823 86.5636 27.2239C86.3698 27.5655 86.1274 27.8979 85.8366 28.2211H86.7645Z" fill="white"/>
</g>
</svg>
